PathFileType	4	(X/Y/Z)	C:\Users\Basilio\Documents\Thesis Gigler\squatting_fais\c3dfiles\039\SLS_pre_front4\markers_experimental.trc
DataRate	CameraRate	NumFrames	NumMarkers	Units	OrigDataRate	OrigDataStartFrame	OrigNumFrames
200.000000	200.000000	4	63	mm	200.000000	749	1999
Frame#	Time	FHD			LBHD			RBHD			C7			T10			CLAV			LSHO			LUUPA			LMUPA			LDUPA			LLEP			LMEP			LRAD			LUL			LRFIN			RSHO			RUPA1			RMUPA			RDUPA			RLEP			RMEP			RRAD			RUL			RUFIN			LASI			RASI			USACR			LSACR			RSACR			LTHI1			LTHI2			LTHI3			LTHI4			LLFC			LMFC			LTIB1			LTIB2			LTIB3			LTIB4			LLMAL			LMMAL			LHEE			LMT1			LMT2			LMT5			RTHI			RTHI2			RTHI3			RTHI4			RLFC			RMFC			RTIB1			RTIB2			RTIB3			RTIB4			RLMAL			RMMAL			RHEE			RMT1			RMT2			RMT5			*61			*62			
		X1	Y1	Z1	X2	Y2	Z2	X3	Y3	Z3	X4	Y4	Z4	X5	Y5	Z5	X6	Y6	Z6	X7	Y7	Z7	X8	Y8	Z8	X9	Y9	Z9	X10	Y10	Z10	X11	Y11	Z11	X12	Y12	Z12	X13	Y13	Z13	X14	Y14	Z14	X15	Y15	Z15	X16	Y16	Z16	X17	Y17	Z17	X18	Y18	Z18	X19	Y19	Z19	X20	Y20	Z20	X21	Y21	Z21	X22	Y22	Z22	X23	Y23	Z23	X24	Y24	Z24	X25	Y25	Z25	X26	Y26	Z26	X27	Y27	Z27	X28	Y28	Z28	X29	Y29	Z29	X30	Y30	Z30	X31	Y31	Z31	X32	Y32	Z32	X33	Y33	Z33	X34	Y34	Z34	X35	Y35	Z35	X36	Y36	Z36	X37	Y37	Z37	X38	Y38	Z38	X39	Y39	Z39	X40	Y40	Z40	X41	Y41	Z41	X42	Y42	Z42	X43	Y43	Z43	X44	Y44	Z44	X45	Y45	Z45	X46	Y46	Z46	X47	Y47	Z47	X48	Y48	Z48	X49	Y49	Z49	X50	Y50	Z50	X51	Y51	Z51	X52	Y52	Z52	X53	Y53	Z53	X54	Y54	Z54	X55	Y55	Z55	X56	Y56	Z56	X57	Y57	Z57	X58	Y58	Z58	X59	Y59	Z59	X60	Y60	Z60	X61	Y61	Z61	X62	Y62	Z62	X63	Y63	Z63	

750	3.745	-321.9902343750001	1768.567138671875	-650.5825805664064	nan	nan	nan	-453.1240539550782	1750.472778320313	-627.4841918945314	-528.5080566406251	1579.650390625	-704.1848144531251	-537.9281616210939	1266.627197265625	-720.6737670898439	nan	nan	nan	-456.7055053710939	1599.956176757813	-857.8133544921877	-289.6417236328126	1574.09033203125	-970.234802246094	-268.5117187500001	1608.057250976563	-939.2852172851565	-221.1334228515626	1588.262084960938	-971.0381469726565	-155.6902008056641	1601.27001953125	-966.807556152344	-145.5643768310547	1529.963623046875	-934.1201171875002	116.876205444336	1651.324584960938	-898.500183105469	119.792839050293	1652.888793945313	-971.2127075195315	203.3564910888672	1690.264038085938	-895.094909667969	-409.1526794433595	1595.3896484375	-552.4924926757814	-234.9970855712891	1544.702880859375	-467.9023437500001	-213.159652709961	1578.513671875	-498.5247802734376	-167.6036071777344	1543.9150390625	-477.0198974609376	-107.0278015136719	1560.988891601563	-493.7250061035157	-101.9059143066407	1492.116577148438	-531.2586669921876	170.7880554199219	1616.202270507813	-598.1107177734376	176.8728179931641	1607.288696289063	-522.7777709960939	260.2264099121094	1650.557861328125	-595.5556030273439	-354.9828186035157	1123.83740234375	-856.9822998046877	-343.1187133789063	1084.742797851563	-634.8463745117189	-537.9048461914064	1125.969970703125	-733.0354003906251	-537.9150390625001	1097.638061523438	-765.8886108398439	-533.4026489257814	1088.773559570313	-706.9494628906251	-241.3699035644532	919.5686035156252	-951.351257324219	-160.2334442138672	896.8894042968752	-944.603698730469	-134.7473907470703	933.051940917969	-926.3274536132815	-137.5907440185547	839.4797973632815	-939.3809204101565	-41.43961715698243	764.0031127929689	-940.8623046875002	-9.183953285217287	751.9210815429689	-827.0374145507815	110.5189285278321	709.8860473632814	-916.8562622070315	102.9957809448242	639.3234252929689	-967.7252197265627	133.2200927734375	666.1468505859376	-947.765808105469	193.9628295898438	612.4174194335939	-913.441101074219	288.9752197265626	466.7394409179689	-961.0021972656252	299.4239807128907	467.9166259765626	-874.243591308594	286.7460937500001	373.7097473144532	-930.672790527344	440.8489074707032	546.4702758789064	-890.3948974609377	435.8771972656251	549.0000610351564	-931.9311523437502	424.327606201172	508.0714721679689	-989.9371337890627	-343.0536193847657	803.5200805664065	-596.5495605468751	-293.2451477050782	758.6558837890626	-597.1732788085939	-262.6609497070313	768.796813964844	-602.3152465820314	-303.2665710449219	675.5831909179689	-615.2500000000001	-314.9708557128907	537.1550903320314	-651.7661743164064	-275.8928222656251	542.5076293945314	-764.1884765625001	-283.1773681640626	328.6345520019532	-689.8051147460939	-372.4846496582032	268.4595031738282	-691.7714233398439	-327.5857238769532	256.6925659179688	-690.6497192382814	-311.3367919921876	211.7123413085938	-728.4130249023439	-386.1683349609376	122.1236038208008	-716.8035278320314	-351.6982421875001	143.1650848388672	-798.7473754882815	-453.3928833007814	104.1572952270508	-773.1482543945315	-230.0886688232422	54.07510375976564	-779.5904541015627	-234.0974121093751	56.2899627685547	-733.6036376953126	-290.7336425781251	40.72515106201173	-682.8088378906251	nan	nan	nan	nan	nan	nan	
751	3.75	-322.2410278320313	1768.351684570313	-650.3295898437501	nan	nan	nan	-453.4379882812501	1750.727172851563	-627.3876342773439	-528.7363281250001	1579.536376953125	-703.9995117187501	-538.0264892578126	1266.470703125	-720.6436157226564	nan	nan	nan	-456.9226379394532	1599.905029296875	-857.7214965820315	-289.9163818359376	1574.087768554688	-970.1350708007815	-268.6900939941407	1608.201782226563	-939.2336425781252	-221.4489135742188	1588.240112304688	-970.9355468750002	-155.9813385009766	1601.150146484375	-966.7295532226565	-145.7698516845703	1529.873291015625	-934.1683349609377	116.7748641967774	1651.12109375	-898.2668457031252	119.5729141235352	1652.777221679688	-971.2684326171877	203.1768035888672	1690.073486328125	-895.2024536132815	-409.342254638672	1595.185424804688	-552.3524169921876	-235.5354003906251	1544.270874023438	-468.459442138672	-213.2781829833985	1578.348022460938	-498.4906005859376	-167.7360229492188	1543.953125	-477.1049194335939	-107.1462860107422	1560.79296875	-493.5960998535157	-101.9979248046875	1491.946533203125	-531.2802124023439	170.5807342529297	1616.103271484375	-598.1871337890626	176.7176361083985	1607.181030273438	-522.8723754882814	260.0464172363282	1650.472045898438	-595.6829223632814	-354.9848327636719	1123.900146484375	-856.8917236328127	-343.2920837402344	1084.770751953125	-634.7197265625001	-537.9216918945314	1125.70849609375	-733.2156372070314	-537.9099731445314	1097.44775390625	-766.0623168945314	-533.5225830078126	1088.667602539063	-707.1688232421876	-240.710189819336	920.1021118164065	-951.3176269531252	-159.4775085449219	897.7838134765627	-944.515319824219	-133.8123474121094	933.585876464844	-926.1643676757815	-136.6109771728516	840.468444824219	-939.334655761719	-40.40980529785157	765.3276367187501	-940.6574707031252	-8.215989112854006	753.2744140625001	-826.872009277344	111.60009765625	711.5262451171876	-916.4326782226565	104.5033340454102	641.1735229492189	-967.1302490234377	134.6131896972657	667.8518066406251	-947.2777099609377	195.3942565917969	614.0853881835939	-913.1033325195315	290.8185119628907	468.6489562988282	-960.8005981445315	301.0744018554688	469.9548339843751	-874.0847778320315	288.7994689941407	375.8417663574219	-930.6005859375002	442.4990234375001	548.7175292968751	-890.2650146484377	437.4175109863282	551.2617187500001	-931.5734863281252	426.3776245117189	510.3098754882814	-989.719421386719	-343.1839294433594	803.5161743164065	-596.4045410156251	-293.3669433593751	758.6506958007814	-596.8232421875001	-262.8490600585938	768.8450317382815	-601.7908325195314	-303.3658752441407	675.6361083984376	-614.8867187500001	-315.1971130371094	536.9864501953126	-651.4950561523439	-275.5042724609376	542.4705200195314	-763.6439819335939	-283.3118591308594	328.6933288574219	-689.3270263671876	-372.6242675781251	268.5191345214844	-691.4199218750001	-327.7731323242188	256.5772399902344	-690.3912353515626	-311.3880310058594	211.7312469482422	-727.8297729492189	-386.2942504882814	122.1443405151367	-716.5846557617189	-351.6529541015626	143.2287750244141	-798.5382080078127	-453.4003295898439	104.1893463134766	-773.0559082031252	-230.1238708496094	54.24692916870119	-779.4395141601565	-234.1905517578126	56.32873916625978	-733.4630126953126	-290.7678833007813	40.59740447998048	-682.7225341796876	nan	nan	nan	nan	nan	nan	
752	3.755	-322.4614868164063	1768.249633789063	-650.0583496093751	nan	nan	nan	-453.6096801757814	1750.64892578125	-627.2040405273439	-528.8987426757814	1579.307739257813	-703.8029174804689	-538.2329101562501	1266.2890625	-720.6669311523439	nan	nan	nan	-457.1668395996095	1599.835815429688	-857.6023559570315	-290.1790466308594	1574.123046875	-970.0545654296877	-268.9739990234376	1607.980712890625	-939.1716918945315	-221.6851959228516	1588.2236328125	-970.9251098632815	-156.28759765625	1600.993896484375	-966.6456298828127	-145.9115447998047	1529.843383789063	-934.1584472656252	116.9473571777344	1650.951049804688	-898.1568603515627	119.2631759643555	1652.649658203125	-971.358581542969	202.950424194336	1689.94580078125	-895.2725830078127	-409.4949035644532	1595.018798828125	-552.2182617187501	-235.6234588623047	1544.005004882813	-468.4158325195314	-213.4060974121094	1578.128662109375	-498.4440002441407	-167.7817535400391	1543.832763671875	-476.9778442382814	-107.3027877807617	1560.617309570313	-493.629852294922	-102.116081237793	1491.732543945313	-531.2760009765626	170.470703125	1615.990966796875	-598.3417968750001	176.598388671875	1607.067749023438	-522.9881591796876	259.8506774902344	1650.414184570313	-595.8267211914064	-354.7980957031251	1124.01904296875	-856.8039550781252	-343.4617309570313	1084.800415039063	-634.5803222656251	-538.0605468750001	1125.707275390625	-733.2902832031251	-537.8929443359376	1097.320068359375	-766.2383422851564	-533.6461791992189	1088.510375976563	-707.3409423828126	-240.0113830566407	920.7317504882815	-951.2299804687502	-158.7713623046875	898.604431152344	-944.3372192382815	-133.1636047363282	934.491394042969	-926.024597167969	-135.7393951416016	841.429870605469	-939.151062011719	-39.10984420776368	766.5383300781251	-940.2894287109377	-7.08186721801758	754.5930786132814	-826.591247558594	112.9124374389649	713.3267822265626	-916.2717285156252	105.9716796875	642.7632446289064	-967.435241699219	136.3991851806641	669.4229125976564	-947.627136230469	196.7953643798829	615.9425048828126	-912.9382934570315	292.4856567382813	470.9964904785157	-960.6437988281252	302.9249267578126	471.6477966308595	-874.1484375000002	290.8880920410157	377.8542785644532	-930.487243652344	444.1783447265626	551.1075439453126	-889.8240356445315	438.895233154297	553.6903076171876	-931.2778930664065	427.5321044921876	513.0773315429689	-989.6057739257815	-343.2992248535157	803.515319824219	-596.3178710937501	-293.4504699707032	758.7002563476564	-596.4668579101564	-262.9797973632813	768.9567871093752	-601.3176269531251	-303.3976440429688	675.6196289062501	-614.4597167968751	-314.9946289062501	537.1727905273439	-650.8927001953126	-275.1207885742188	542.4362182617189	-763.1595458984376	-283.3503112792969	328.6390686035157	-688.8664550781251	-372.7825317382813	268.5911865234376	-691.1054077148439	-327.9797973632813	256.5256958007813	-690.1234130859376	-311.4606933593751	211.8172454833985	-727.5678100585939	-386.334197998047	122.2445144653321	-716.3736572265626	-351.4865722656251	143.5863952636719	-798.160827636719	-453.3845825195314	104.2208786010742	-772.9583740234377	-230.1656646728516	54.51511764526369	-779.365417480469	-234.2342529296876	56.33178710937501	-733.3686523437501	-290.7731323242188	40.49443435668946	-682.6068725585939	nan	nan	nan	nan	nan	nan	
753	3.76	-322.6704406738282	1768.118530273438	-649.9323730468751	nan	nan	nan	-453.8265991210939	1750.509399414063	-627.0352172851564	-529.0777587890626	1579.11376953125	-703.6240844726564	-538.4335327148439	1266.1259765625	-720.6417236328126	nan	nan	nan	-457.4896545410157	1599.76220703125	-857.455993652344	-290.4670410156251	1574.14453125	-969.9697265625002	-269.2214660644532	1607.886108398438	-939.0133056640627	-221.9462890625001	1588.11962890625	-970.7722167968752	-156.5700225830078	1600.8486328125	-966.5964355468752	-146.1680755615235	1529.80810546875	-934.1309814453127	121.2894363403321	1650.172973632813	-896.9304809570315	119.0185241699219	1652.537475585938	-971.410095214844	202.7111511230469	1689.86376953125	-895.4065551757815	-409.6373596191407	1594.803588867188	-552.1051635742189	-235.6986694335938	1543.7626953125	-468.3914794921876	-213.5147552490235	1577.895629882813	-498.368865966797	-167.89892578125	1543.572143554688	-476.9207763671876	-107.4540786743164	1560.407836914063	-493.5848999023439	-102.1963729858399	1491.575927734375	-531.2697753906251	170.2147369384766	1615.874145507813	-598.4274291992189	176.4110870361328	1606.963623046875	-523.0800781250001	259.5632934570313	1650.376953125	-596.0078125000001	-354.7449645996094	1124.086181640625	-856.712341308594	-343.6421508789063	1084.840576171875	-634.4177246093751	-538.1825561523439	1125.307861328125	-733.4536743164064	-537.8816528320314	1097.12353515625	-766.3717041015626	-533.6867675781251	1088.314453125	-707.5375366210939	-239.9044647216797	920.9353027343752	-951.1696777343752	-158.0882415771485	899.4346313476565	-944.1708984375002	-132.5775299072266	935.4588012695315	-925.9280395507815	-134.9503631591797	842.3358154296877	-939.0904541015627	-38.08994674682618	767.8705444335939	-940.0909423828127	-6.22309732437134	755.7785034179689	-826.3735961914065	114.1561508178711	714.9161376953126	-916.1140747070315	107.2638244628907	644.5059204101564	-967.078796386719	137.3683013916016	671.4058227539064	-947.143737792969	198.2557525634766	617.6583862304689	-912.832458496094	294.1896057128907	472.832977294922	-960.425720214844	304.6331787109376	473.8760070800782	-873.8472900390627	292.6873474121094	379.8122253417969	-930.3833007812502	445.4423828125001	553.4483032226564	-889.6068115234377	440.4268188476564	556.2163696289064	-931.1109619140627	429.0797424316407	515.3720092773439	-989.4316406250002	-343.3380432128907	803.513854980469	-596.2113647460939	-293.5037841796876	758.5780639648439	-595.9563598632814	-263.1083068847657	768.9644775390627	-600.9943847656251	-303.2913513183594	675.7011718750001	-614.1069946289064	-314.9516906738282	537.1868286132814	-650.4692382812501	-274.4692687988282	542.7110595703126	-762.8446655273439	-283.3487548828126	328.6027832031251	-688.4368896484376	-372.8665466308594	268.5995483398438	-690.6875000000001	-328.0627441406251	256.5268249511719	-689.7443847656251	-311.5715332031251	211.8426971435547	-727.0895385742189	-386.432342529297	122.2445983886719	-716.1882934570314	-351.4962158203126	143.4269561767578	-797.9993286132815	-453.3913574218751	104.2673721313477	-772.8242187500002	-230.1759033203126	54.67042922973634	-779.2835693359377	-234.2788696289063	56.31887817382814	-733.3062744140626	-290.8001403808594	40.40680694580079	-682.5856323242189	nan	nan	nan	nan	nan	nan	
